<mxfile host="app.diagrams.net" agent="Mozilla/5.0 (Windows NT 10.0; Win64; x64) AppleWebKit/537.36 (KHTML, like Gecko) Chrome/135.0.0.0 Safari/537.36" version="26.2.12">
  <diagram id="C5RBs43oDa-KdzZeNtuy" name="Page-1">
    <mxGraphModel dx="1165" dy="620" grid="1" gridSize="10" guides="1" tooltips="1" connect="1" arrows="1" fold="1" page="1" pageScale="1" pageWidth="827" pageHeight="1169" math="0" shadow="0">
      <root>
        <mxCell id="WIyWlLk6GJQsqaUBKTNV-0" />
        <mxCell id="WIyWlLk6GJQsqaUBKTNV-1" parent="WIyWlLk6GJQsqaUBKTNV-0" />
        <mxCell id="2-wbMai0zYC5fIPHV0oy-1" value="" style="edgeStyle=orthogonalEdgeStyle;rounded=0;orthogonalLoop=1;jettySize=auto;html=1;entryX=0.607;entryY=-0.036;entryDx=0;entryDy=0;entryPerimeter=0;" edge="1" parent="WIyWlLk6GJQsqaUBKTNV-1" source="2-wbMai0zYC5fIPHV0oy-0" target="2-wbMai0zYC5fIPHV0oy-27">
          <mxGeometry relative="1" as="geometry">
            <mxPoint x="220" y="150" as="targetPoint" />
          </mxGeometry>
        </mxCell>
        <mxCell id="2-wbMai0zYC5fIPHV0oy-0" value="CalificaciÃ³n tres parciales" style="ellipse;whiteSpace=wrap;html=1;" vertex="1" parent="WIyWlLk6GJQsqaUBKTNV-1">
          <mxGeometry x="220" y="30" width="100" height="70" as="geometry" />
        </mxCell>
        <mxCell id="2-wbMai0zYC5fIPHV0oy-4" value="" style="edgeStyle=orthogonalEdgeStyle;rounded=0;orthogonalLoop=1;jettySize=auto;html=1;exitX=0.5;exitY=1;exitDx=0;exitDy=0;" edge="1" parent="WIyWlLk6GJQsqaUBKTNV-1" source="2-wbMai0zYC5fIPHV0oy-27" target="2-wbMai0zYC5fIPHV0oy-3">
          <mxGeometry relative="1" as="geometry">
            <mxPoint x="220" y="210" as="sourcePoint" />
          </mxGeometry>
        </mxCell>
        <mxCell id="2-wbMai0zYC5fIPHV0oy-6" value="" style="edgeStyle=orthogonalEdgeStyle;rounded=0;orthogonalLoop=1;jettySize=auto;html=1;entryX=0.5;entryY=0;entryDx=0;entryDy=0;" edge="1" parent="WIyWlLk6GJQsqaUBKTNV-1" source="2-wbMai0zYC5fIPHV0oy-3" target="2-wbMai0zYC5fIPHV0oy-33">
          <mxGeometry relative="1" as="geometry">
            <mxPoint x="220" y="410" as="targetPoint" />
          </mxGeometry>
        </mxCell>
        <mxCell id="2-wbMai0zYC5fIPHV0oy-23" style="edgeStyle=orthogonalEdgeStyle;rounded=0;orthogonalLoop=1;jettySize=auto;html=1;entryX=0;entryY=0.5;entryDx=0;entryDy=0;" edge="1" parent="WIyWlLk6GJQsqaUBKTNV-1" source="2-wbMai0zYC5fIPHV0oy-3" target="2-wbMai0zYC5fIPHV0oy-35">
          <mxGeometry relative="1" as="geometry">
            <mxPoint x="690" y="320" as="targetPoint" />
          </mxGeometry>
        </mxCell>
        <mxCell id="2-wbMai0zYC5fIPHV0oy-3" value="for:&lt;div&gt;Desde i = 0&lt;/div&gt;&lt;div&gt;hasta i &amp;lt; 3&lt;/div&gt;&lt;div&gt;incremento 1&lt;/div&gt;" style="rhombus;whiteSpace=wrap;html=1;" vertex="1" parent="WIyWlLk6GJQsqaUBKTNV-1">
          <mxGeometry x="130" y="270" width="180" height="100" as="geometry" />
        </mxCell>
        <mxCell id="2-wbMai0zYC5fIPHV0oy-9" value="" style="edgeStyle=orthogonalEdgeStyle;rounded=0;orthogonalLoop=1;jettySize=auto;html=1;exitX=0.483;exitY=0.879;exitDx=0;exitDy=0;exitPerimeter=0;entryX=0.5;entryY=0;entryDx=0;entryDy=0;" edge="1" parent="WIyWlLk6GJQsqaUBKTNV-1" source="2-wbMai0zYC5fIPHV0oy-33" target="2-wbMai0zYC5fIPHV0oy-34">
          <mxGeometry relative="1" as="geometry">
            <mxPoint x="220" y="460" as="sourcePoint" />
            <mxPoint x="220" y="500" as="targetPoint" />
          </mxGeometry>
        </mxCell>
        <mxCell id="2-wbMai0zYC5fIPHV0oy-12" value="" style="edgeStyle=orthogonalEdgeStyle;rounded=0;orthogonalLoop=1;jettySize=auto;html=1;exitX=0.5;exitY=1;exitDx=0;exitDy=0;" edge="1" parent="WIyWlLk6GJQsqaUBKTNV-1" source="2-wbMai0zYC5fIPHV0oy-34" target="2-wbMai0zYC5fIPHV0oy-11">
          <mxGeometry relative="1" as="geometry">
            <mxPoint x="220" y="530" as="sourcePoint" />
          </mxGeometry>
        </mxCell>
        <mxCell id="2-wbMai0zYC5fIPHV0oy-15" value="" style="edgeStyle=orthogonalEdgeStyle;rounded=0;orthogonalLoop=1;jettySize=auto;html=1;entryX=0;entryY=0.5;entryDx=0;entryDy=0;" edge="1" parent="WIyWlLk6GJQsqaUBKTNV-1" source="2-wbMai0zYC5fIPHV0oy-11" target="2-wbMai0zYC5fIPHV0oy-31">
          <mxGeometry relative="1" as="geometry">
            <mxPoint x="414" y="610" as="targetPoint" />
          </mxGeometry>
        </mxCell>
        <mxCell id="2-wbMai0zYC5fIPHV0oy-20" value="" style="edgeStyle=orthogonalEdgeStyle;rounded=0;orthogonalLoop=1;jettySize=auto;html=1;entryX=0.5;entryY=0;entryDx=0;entryDy=0;" edge="1" parent="WIyWlLk6GJQsqaUBKTNV-1" source="2-wbMai0zYC5fIPHV0oy-11" target="2-wbMai0zYC5fIPHV0oy-30">
          <mxGeometry relative="1" as="geometry">
            <mxPoint x="220" y="760" as="targetPoint" />
          </mxGeometry>
        </mxCell>
        <mxCell id="2-wbMai0zYC5fIPHV0oy-11" value="if&lt;div&gt;calificaciones[i] &amp;lt; 0 || calificaciones[i] &amp;gt; 10&lt;/div&gt;" style="rhombus;whiteSpace=wrap;html=1;" vertex="1" parent="WIyWlLk6GJQsqaUBKTNV-1">
          <mxGeometry x="70" y="560" width="300" height="100" as="geometry" />
        </mxCell>
        <mxCell id="2-wbMai0zYC5fIPHV0oy-13" value="si" style="text;html=1;align=center;verticalAlign=middle;resizable=0;points=[];autosize=1;strokeColor=none;fillColor=none;" vertex="1" parent="WIyWlLk6GJQsqaUBKTNV-1">
          <mxGeometry x="355" y="568" width="30" height="30" as="geometry" />
        </mxCell>
        <mxCell id="2-wbMai0zYC5fIPHV0oy-17" style="edgeStyle=orthogonalEdgeStyle;rounded=0;orthogonalLoop=1;jettySize=auto;html=1;entryX=0.5;entryY=0;entryDx=0;entryDy=0;exitX=0.517;exitY=0.817;exitDx=0;exitDy=0;exitPerimeter=0;" edge="1" parent="WIyWlLk6GJQsqaUBKTNV-1" source="2-wbMai0zYC5fIPHV0oy-31" target="2-wbMai0zYC5fIPHV0oy-16">
          <mxGeometry relative="1" as="geometry">
            <mxPoint x="504" y="635" as="sourcePoint" />
            <mxPoint x="220" y="1023" as="targetPoint" />
            <Array as="points">
              <mxPoint x="523" y="615" />
              <mxPoint x="520" y="615" />
              <mxPoint x="520" y="890" />
              <mxPoint x="220" y="890" />
            </Array>
          </mxGeometry>
        </mxCell>
        <mxCell id="2-wbMai0zYC5fIPHV0oy-16" value="Fin de ejecucion" style="ellipse;whiteSpace=wrap;html=1;" vertex="1" parent="WIyWlLk6GJQsqaUBKTNV-1">
          <mxGeometry x="160" y="1050" width="120" height="80" as="geometry" />
        </mxCell>
        <mxCell id="2-wbMai0zYC5fIPHV0oy-18" value="no" style="text;html=1;align=center;verticalAlign=middle;resizable=0;points=[];autosize=1;strokeColor=none;fillColor=none;" vertex="1" parent="WIyWlLk6GJQsqaUBKTNV-1">
          <mxGeometry x="260" y="648" width="40" height="30" as="geometry" />
        </mxCell>
        <mxCell id="2-wbMai0zYC5fIPHV0oy-21" style="edgeStyle=orthogonalEdgeStyle;rounded=0;orthogonalLoop=1;jettySize=auto;html=1;entryX=0;entryY=0.5;entryDx=0;entryDy=0;exitX=0;exitY=0.5;exitDx=0;exitDy=0;" edge="1" parent="WIyWlLk6GJQsqaUBKTNV-1" source="2-wbMai0zYC5fIPHV0oy-30" target="2-wbMai0zYC5fIPHV0oy-3">
          <mxGeometry relative="1" as="geometry">
            <mxPoint x="140" y="790" as="sourcePoint" />
            <Array as="points">
              <mxPoint x="150" y="790" />
              <mxPoint x="50" y="790" />
              <mxPoint x="50" y="320" />
            </Array>
          </mxGeometry>
        </mxCell>
        <mxCell id="2-wbMai0zYC5fIPHV0oy-25" value="" style="edgeStyle=orthogonalEdgeStyle;rounded=0;orthogonalLoop=1;jettySize=auto;html=1;exitX=0.5;exitY=1;exitDx=0;exitDy=0;entryX=0.5;entryY=0;entryDx=0;entryDy=0;" edge="1" parent="WIyWlLk6GJQsqaUBKTNV-1" source="2-wbMai0zYC5fIPHV0oy-35" target="2-wbMai0zYC5fIPHV0oy-36">
          <mxGeometry relative="1" as="geometry">
            <mxPoint x="740" y="350" as="sourcePoint" />
            <mxPoint x="740" y="470" as="targetPoint" />
          </mxGeometry>
        </mxCell>
        <mxCell id="2-wbMai0zYC5fIPHV0oy-26" style="edgeStyle=orthogonalEdgeStyle;rounded=0;orthogonalLoop=1;jettySize=auto;html=1;entryX=1;entryY=0.5;entryDx=0;entryDy=0;exitX=0.438;exitY=0.904;exitDx=0;exitDy=0;exitPerimeter=0;" edge="1" parent="WIyWlLk6GJQsqaUBKTNV-1" source="2-wbMai0zYC5fIPHV0oy-36" target="2-wbMai0zYC5fIPHV0oy-16">
          <mxGeometry relative="1" as="geometry">
            <mxPoint x="730" y="530" as="sourcePoint" />
            <Array as="points">
              <mxPoint x="730" y="466" />
              <mxPoint x="730" y="1090" />
            </Array>
          </mxGeometry>
        </mxCell>
        <mxCell id="2-wbMai0zYC5fIPHV0oy-27" value="calificaciones[3], promedio;" style="shape=parallelogram;perimeter=parallelogramPerimeter;whiteSpace=wrap;html=1;fixedSize=1;" vertex="1" parent="WIyWlLk6GJQsqaUBKTNV-1">
          <mxGeometry x="150" y="150" width="200" height="60" as="geometry" />
        </mxCell>
        <mxCell id="2-wbMai0zYC5fIPHV0oy-30" value="promedio += calificaciones[i];" style="rounded=1;whiteSpace=wrap;html=1;" vertex="1" parent="WIyWlLk6GJQsqaUBKTNV-1">
          <mxGeometry x="125" y="760" width="190" height="60" as="geometry" />
        </mxCell>
        <mxCell id="2-wbMai0zYC5fIPHV0oy-31" value="printf(&quot;Elija un rango de 0-10!!!&quot;);" style="shape=document;whiteSpace=wrap;html=1;boundedLbl=1;" vertex="1" parent="WIyWlLk6GJQsqaUBKTNV-1">
          <mxGeometry x="430" y="570" width="180" height="50" as="geometry" />
        </mxCell>
        <mxCell id="2-wbMai0zYC5fIPHV0oy-33" value="printf(&quot;Digite las calificaciones %i parcial: &quot;, i + 1);" style="shape=document;whiteSpace=wrap;html=1;boundedLbl=1;" vertex="1" parent="WIyWlLk6GJQsqaUBKTNV-1">
          <mxGeometry x="85" y="410" width="270" height="40" as="geometry" />
        </mxCell>
        <mxCell id="2-wbMai0zYC5fIPHV0oy-34" value="scanf(&quot;%f&quot;, &amp;amp;calificaciones[i]);" style="shape=parallelogram;perimeter=parallelogramPerimeter;whiteSpace=wrap;html=1;fixedSize=1;" vertex="1" parent="WIyWlLk6GJQsqaUBKTNV-1">
          <mxGeometry x="110" y="490" width="210" height="30" as="geometry" />
        </mxCell>
        <mxCell id="2-wbMai0zYC5fIPHV0oy-35" value="promedio /= 3;" style="rounded=1;whiteSpace=wrap;html=1;" vertex="1" parent="WIyWlLk6GJQsqaUBKTNV-1">
          <mxGeometry x="680" y="305" width="120" height="30" as="geometry" />
        </mxCell>
        <mxCell id="2-wbMai0zYC5fIPHV0oy-36" value="printf(&quot;Su promedio es de %.1f&quot;, promedio);" style="shape=document;whiteSpace=wrap;html=1;boundedLbl=1;" vertex="1" parent="WIyWlLk6GJQsqaUBKTNV-1">
          <mxGeometry x="610" y="440" width="250" height="40" as="geometry" />
        </mxCell>
      </root>
    </mxGraphModel>
  </diagram>
</mxfile>
